#!OML:ASF E:\Style4\Style4.ASF
:FULLY-SPECIFIED
:DEGREES
1212
root -0.167389 17.3007 -1.33777 4.70039 -5.15472 2.48651
lowerback 16.8049 1.17764 -0.875441
upperback 8.44286 1.38571 0.0135648
thorax -0.448097 0.655318 0.276707
lowerneck 3.1997 -1.05107 -6.43265
upperneck -2.72679 -1.59478 3.06407
head -1.33337 -0.783162 2.11609
rclavicle 6.55989e-015 9.14409e-015
rhumerus -7.26168 25.7653 -81.8059
rradius 127.187
rwrist -4.37322
rhand 37.8928 1.11033
rfingers 7.12502
rthumb 60.6266 -11.9949
lclavicle 6.55989e-015 9.14409e-015
lhumerus 8.92068 -16.4303 72.7836
lradius 120.885
lwrist -19.4945
lhand 23.434 41.1094
lfingers 7.12502
lthumb 47.7197 63.452
rfemur -29.1295 -2.84853 17.3672
rtibia 45.7558
rfoot -19.9976 -12.7395
rtoes -16.2633
lfemur -27.1318 4.46343 -19.689
ltibia 44.7713
lfoot -20.6749 7.98109
ltoes -15.8468
1213
root -0.158103 17.3195 -1.32358 4.77141 -5.28158 2.40165
lowerback 16.8085 1.11901 -0.889389
upperback 8.30208 1.30472 -0.0569743
thorax -0.597604 0.616675 0.222557
lowerneck 3.15284 -0.902579 -6.36058
upperneck -2.54138 -1.39391 2.97519
head -1.27626 -0.684102 2.06726
rclavicle -1.43125e-014 5.56597e-015
rhumerus -6.97993 25.3512 -81.6668
rradius 127.963
rwrist -4.57962
rhand 36.9195 1.46506
rfingers 7.12502
rthumb 59.7962 -12.5274
lclavicle -1.43125e-014 5.56597e-015
lhumerus 7.78092 -17.0214 73.4294
lradius 120.779
lwrist -19.1862
lhand 23.7425 41.0766
lfingers 7.12502
lthumb 48.0041 63.2875
rfemur -28.9788 -2.77003 17.421
rtibia 45.419
rfoot -19.8711 -12.7162
rtoes -16.3114
lfemur -27.0722 4.75038 -19.6747
ltibia 44.6382
lfoot -20.5085 8.00844
ltoes -16.2763
1214
root -0.148112 17.3422 -1.30898 4.88364 -5.48518 2.39071
lowerback 16.5698 1.13674 -1.10576
upperback 8.26735 1.29946 -0.04967
thorax -0.51477 0.607373 0.35697
lowerneck 3.11578 -0.743844 -6.3751
upperneck -2.51689 -1.18342 2.8772
head -1.27257 -0.577213 2.03324
rclavicle -1.21259e-014 -6.36111e-015
rhumerus -6.58708 25.0043 -81.3253
rradius 128.756
rwrist -4.73266
rhand 35.4009 1.64128
rfingers 7.12502
rthumb 58.4859 -13.636
lclavicle -1.21259e-014 -6.36111e-015
lhumerus 6.68796 -17.5926 74.2286
lradius 120.648
lwrist -18.8525
lhand 23.96 41.0399
lfingers 7.12502
lthumb 48.2046 63.1567
rfemur -28.8744 -2.63723 17.3816
rtibia 45.028
rfoot -19.729 -12.6299
rtoes -16.2075
lfemur -26.9981 4.99614 -19.7453
ltibia 44.396
lfoot -20.3429 8.16222
ltoes -16.791
1215
root -0.139559 17.3652 -1.29293 5.01608 -5.68277 2.42693
lowerback 16.3091 1.15603 -1.34043
upperback 8.23255 1.29499 -0.0560002
thorax -0.420165 0.598113 0.487571
lowerneck 3.05905 -0.584468 -6.40974
upperneck -2.51528 -0.972755 2.7395
head -1.27253 -0.468998 1.98985
rclavicle 2.78299e-015 -8.34896e-015
rhumerus -6.22763 24.6528 -81.0125
rradius 129.503
rwrist -4.73267
rhand 33.7923 1.80384
rfingers 7.12502
rthumb 57.0802 -14.7151
lclavicle 2.78299e-015 -8.34896e-015
lhumerus 5.56069 -18.1435 75.1026
lradius 120.501
lwrist -18.4904
lhand 24.2689 40.9626
lfingers 7.12502
lthumb 48.4891 62.9439
rfemur -28.7671 -2.4827 17.2951
rtibia 44.5952
rfoot -19.5392 -12.6244
rtoes -16.5371
lfemur -26.895 5.12999 -19.8356
ltibia 44.06
lfoot -20.2909 8.22151
ltoes -16.5751
1216
root -0.134478 17.3901 -1.28146 5.15774 -5.77864 2.50044
lowerback 16.2071 1.14954 -1.49222
upperback 8.13241 1.26444 -0.155549
thorax -0.473271 0.581419 0.474581
lowerneck 2.96051 -0.467058 -6.33904
upperneck -2.43424 -0.808766 2.67433
head -1.23718 -0.387288 1.95092
rclavicle -1.03368e-014 -5.56597e-015
rhumerus -6.02489 24.1806 -80.9266
rradius 130.195
rwrist -4.67005
rhand 32.4212 2.13885
rfingers 7.12502
rthumb 55.8696 -15.3516
lclavicle -1.03368e-014 -5.56597e-015
lhumerus 4.38712 -18.8587 75.8139
lradius 120.401
lwrist -17.8869
lhand 24.256 40.9747
lfingers 7.12502
lthumb 48.4772 62.9618
rfemur -28.6524 -2.34387 17.1805
rtibia 44.1472
rfoot -19.3251 -12.6633
rtoes -16.6139
lfemur -26.7906 5.18292 -19.9514
ltibia 43.6602
lfoot -20.0656 8.23044
ltoes -16.4385
1217
root -0.13325 17.417 -1.27483 5.29404 -5.75505 2.53065
lowerback 16.9035 1.07101 -1.77118
upperback 7.55851 1.10183 -0.173233
thorax -1.44679 0.503368 0.624395
lowerneck 2.912 -0.274467 -6.35857
upperneck -1.98223 -0.552359 2.60803
head -1.0969 -0.264015 1.92369
rclavicle -3.1408e-014 -2.78299e-015
rhumerus -6.48519 24.0655 -81.1509
rradius 130.843
rwrist -4.70396
rhand 31.1709 2.52026
rfingers 7.12502
rthumb 54.7565 -15.7931
lclavicle -3.1408e-014 -2.78299e-015
lhumerus 2.36677 -19.5718 76.6972
lradius 120.467
lwrist -17.2614
lhand 24.0587 40.9718
lfingers 7.12502
lthumb 48.2955 63.0455
rfemur -28.4947 -2.25238 17.1364
rtibia 43.6823
rfoot -19.2268 -12.6082
rtoes -15.7701
lfemur -26.6951 5.16899 -19.9967
ltibia 43.2336
lfoot -19.6872 8.26654
ltoes -16.4524
1218
root -0.130477 17.4461 -1.26712 5.48256 -5.70359 2.58866
lowerback 16.8954 1.04056 -1.90172
upperback 7.36986 1.03931 -0.241743
thorax -1.64188 0.473668 0.6358
lowerneck 2.85042 -0.180463 -6.39064
upperneck -1.89461 -0.42362 2.63839
head -1.06469 -0.200776 1.93611
rclavicle 4.47266e-015 9.74045e-015
rhumerus -6.37874 23.6472 -81.067
rradius 131.361
rwrist -4.68179
rhand 29.7812 2.89459
rfingers 7.12502
rthumb 53.5101 -16.2694
lclavicle 4.47266e-015 9.74045e-015
lhumerus 0.975113 -20.2964 77.4875
lradius 120.488
lwrist -16.8467
lhand 24.3187 40.9376
lfingers 7.12502
lthumb 48.5349 62.897
rfemur -28.3668 -2.19464 17.0586
rtibia 43.1948
rfoot -19.2214 -12.3904
rtoes -13.6479
lfemur -26.6451 5.0531 -20.0762
ltibia 42.8002
lfoot -19.415 8.32718
ltoes -16.4065
1219
root -0.12522 17.4748 -1.25652 5.76166 -5.6647 2.66244
lowerback 16.4373 1.05753 -1.9275
upperback 7.38531 1.06682 -0.349904
thorax -1.38504 0.486964 0.538718
lowerneck 2.69008 -0.172156 -6.44258
upperneck -1.92119 -0.400737 2.76187
head -1.04685 -0.189414 1.98474
rclavicle -9.54166e-015 7.95139e-016
rhumerus -5.99676 23.0764 -80.8636
rradius 131.793
rwrist -4.58946
rhand 28.2255 3.14347
rfingers 7.12502
rthumb 52.1048 -16.8997
lclavicle -9.54166e-015 7.95139e-016
lhumerus -0.0643597 -21.0309 78.1875
lradius 120.543
lwrist -16.5615
lhand 24.9622 40.8878
lfingers 7.12502
lthumb 49.1264 62.5575
rfemur -28.33 -2.15573 16.9497
rtibia 42.6784
rfoot -19.1364 -12.2822
rtoes -12.5739
lfemur -26.6776 4.93496 -20.1844
ltibia 42.3563
lfoot -19.1748 8.26272
ltoes -15.3895
1220
root -0.121468 17.5034 -1.2448 5.98311 -5.60402 2.65011
lowerback 16.0281 1.07561 -1.88539
upperback 7.43665 1.10601 -0.430786
thorax -1.11496 0.506793 0.430232
lowerneck 2.57136 -0.157879 -6.46216
upperneck -2.07185 -0.371198 2.86999
head -1.07594 -0.173243 2.02376
rclavicle 5.56597e-015 -7.7526e-015
rhumerus -5.68024 22.4926 -80.6976
rradius 132.211
rwrist -4.47108
rhand 26.9261 3.44287
rfingers 7.12502
rthumb 50.9234 -17.2812
lclavicle 5.56597e-015 -7.7526e-015
lhumerus -1.07713 -21.7565 78.8467
lradius 120.641
lwrist -16.3235
lhand 25.5218 40.6869
lfingers 7.12502
lthumb 49.6398 62.0967
rfemur -28.2147 -2.0964 16.94
rtibia 42.1382
rfoot -18.9207 -12.3946
rtoes -12.8247
lfemur -26.635 4.88679 -20.1972
ltibia 41.8926
lfoot -18.811 8.2626
ltoes -15.0907
1221
root -0.120305 17.5328 -1.23395 6.15186 -5.53982 2.64691
lowerback 15.6391 1.10034 -1.80402
upperback 7.52432 1.15776 -0.571943
thorax -0.814782 0.534723 0.235347
lowerneck 2.46239 -0.146625 -6.33252
upperneck -2.25877 -0.341921 2.92787
head -1.1176 -0.157429 2.01957
rclavicle -8.84592e-015 -7.95139e-016
rhumerus -5.36821 21.8458 -80.6174
rradius 132.586
rwrist -4.35331
rhand 25.8062 3.67147
rfingers 7.12502
rthumb 49.9003 -17.6034
lclavicle -8.84592e-015 -7.95139e-016
lhumerus -1.97938 -22.6208 79.3366
lradius 120.76
lwrist -16.0613
lhand 25.8732 40.7027
lfingers 7.12502
lthumb 49.9616 61.9456
rfemur -28.041 -2.03126 16.9316
rtibia 41.5887
rfoot -18.7007 -12.5049
rtoes -13.0859
lfemur -26.5361 4.82084 -20.2125
ltibia 41.4239
lfoot -18.5881 8.45208
ltoes -15.7876
1222
root -0.119066 17.5613 -1.22432 6.35527 -5.4472 2.6676
lowerback 15.2755 1.12786 -1.61981
upperback 7.57926 1.22462 -0.773886
thorax -0.55874 0.574984 -0.0830055
lowerneck 2.29973 -0.138349 -6.02816
upperneck -2.31278 -0.309987 2.91767
head -1.10679 -0.142432 1.95986
rclavicle 8.84592e-015 -5.96354e-016
rhumerus -5.07419 21.1634 -80.6178
rradius 132.874
rwrist -4.11948
rhand 24.6138 3.72741
rfingers 7.12502
rthumb 48.8064 -18.1002
lclavicle 8.84592e-015 -5.96354e-016
lhumerus -2.87205 -23.6405 79.7244
lradius 120.936
lwrist -15.6193
lhand 26.1296 41.0963
lfingers 7.12502
lthumb 50.1962 62.2154
rfemur -27.9131 -1.99467 16.8987
rtibia 41.0483
rfoot -18.4861 -12.6165
rtoes -13.1525
lfemur -26.5002 4.74289 -20.2572
ltibia 40.9692
lfoot -18.3758 8.59518
ltoes -16.1376
1223
root -0.119641 17.5868 -1.21568 6.57193 -5.31709 2.66443
lowerback 15.1186 1.1495 -1.49411
upperback 7.51058 1.2703 -0.911743
thorax -0.543552 0.604068 -0.30251
lowerneck 2.02466 -0.150617 -6.10284
upperneck -2.18465 -0.308354 3.088
head -1.0191 -0.142995 2.02645
rclavicle -9.83984e-015 4.37326e-015
rhumerus -4.90571 20.6328 -80.583
rradius 133.087
rwrist -3.82832
rhand 23.4395 3.78953
rfingers 7.12502
rthumb 47.7247 -18.5507
lclavicle -9.83984e-015 4.37326e-015
lhumerus -4.05487 -24.5513 80.1611
lradius 121.24
lwrist -15.0864
lhand 26.289 41.4551
lfingers 7.12502
lthumb 50.3419 62.4964
rfemur -27.8076 -1.92582 16.891
rtibia 40.534
rfoot -18.2726 -12.7636
rtoes -13.1126
lfemur -26.5119 4.6881 -20.2742
ltibia 40.5377
lfoot -18.1221 8.66366
ltoes -16.4033
